<svg fill="none" height="93" viewBox="0 0 92 93" width="92" xmlns="http://www.w3.org/2000/svg"><rect fill="#9146ff" height="91.56" rx="45.78" width="91.56" y=".682617"/><path d="m58.2493 49.7983-6.6004 6.1238h-6.6004l-5.7754 5.3583v-5.3583h-7.4254v-22.9641h26.4016z" fill="#9146ff"/><path d="m35.3292 26.5586-1.9905 1.9904-3.4832 22.3924 10.4498 5.4737 1.4928 1.9905 9.9522-3.4833 10.9473-8.4594.4977-7.9617-.4977-11.445-1.4928-.4976z" fill="#fff"/><g fill="#000"><path d="m34.1255 24.9893-8.2505 7.6547v27.5569h9.9006v7.6547l8.2505-7.6547h6.6004l14.8509-13.7785v-21.4331zm28.0517 19.9022-6.6004 6.1237h-6.6004l-5.7753 5.3583v-5.3583h-7.4255v-22.9641h26.4016z"/><path d="m57.2279 33.4092h-3.3002v9.1856h3.3002z"/><path d="m48.1537 33.4092h-3.3002v9.1856h3.3002z"/></g></svg>